<svg xmlns="http://www.w3.org/2000/svg" viewBox="0 0 800 400" width="800" height="400">

  <rect width="800" height="400" fill="#87CEEB" />
  <rect y="300" width="800" height="100" fill="#228B22" />


  <rect x="100" y="150" width="500" height="120" rx="15" ry="15" fill="#FFFFFF" stroke="#000000" stroke-width="2" />
  <rect x="600" y="180" width="100" height="90" rx="10" ry="10" fill="#FFFFFF" stroke="#000000" stroke-width="2" />

 
  <rect x="120" y="165" width="100" height="50" rx="5" ry="5" fill="#87CEEB" stroke="#000000" stroke-width="2" />
  <rect x="240" y="165" width="100" height="50" rx="5" ry="5" fill="#87CEEB" stroke="#000000" stroke-width="2" />
  <rect x="360" y="165" width="100" height="50" rx="5" ry="5" fill="#87CEEB" stroke="#000000" stroke-width="2" />

  
  <rect x="480" y="165" width="60" height="85" rx="5" ry="5" fill="#FFFFFF" stroke="#000000" stroke-width="2" />

 
  <circle cx="200" cy="300" r="30" fill="#000000" />
  <circle cx="200" cy="300" r="15" fill="#555555" />
  <circle cx="500" cy="300" r="30" fill="#000000" />
  <circle cx="500" cy="300" r="15" fill="#555555" />

  
  <line x1="580" y1="180" x2="580" y2="270" stroke="#000000" stroke-width="2" />
  <rect x="605" y="200" width="30" height="40" fill="#87CEEB" stroke="#000000" stroke-width="2" />
</svg>
